<svg xmlns="http://www.w3.org/2000/svg" xmlns:xlink="http://www.w3.org/1999/xlink" width="320" zoomAndPan="magnify" viewBox="0 0 240 239.999995" height="320" preserveAspectRatio="xMidYMid meet" version="1.0"><defs><clipPath id="522605ce6a"><path d="M 70 196 L 170 196 L 170 228.679688 L 70 228.679688 Z M 70 196 " clip-rule="nonzero"/></clipPath><clipPath id="1cf42c00ac"><path d="M 111 11.179688 L 129 11.179688 L 129 29 L 111 29 Z M 111 11.179688 " clip-rule="nonzero"/></clipPath><clipPath id="70d70d9c54"><path d="M 116.25 146.25 L 120 146.25 L 120 150 L 116.25 150 Z M 116.25 146.25 " clip-rule="nonzero"/></clipPath><clipPath id="aff884112d"><path d="M 0.25 0.25 L 4 0.25 L 4 4 L 0.25 4 Z M 0.25 0.25 " clip-rule="nonzero"/></clipPath><clipPath id="b5816f2f93"><rect x="0" width="4" y="0" height="4"/></clipPath></defs><path fill="#b8965f" d="M 188.570312 41.015625 C 182.710938 41.929688 176.945312 42.695312 171.007812 42.324219 C 163.96875 41.882812 158.070312 37.527344 152.183594 34.121094 C 143.839844 29.292969 135.890625 27.289062 126.890625 27.804688 C 126.242188 27.332031 125.476562 26.992188 124.605469 26.992188 L 115.3125 26.992188 C 114.441406 26.992188 113.679688 27.332031 113.03125 27.800781 C 104.71875 27.308594 97.316406 28.953125 89.4375 33.167969 C 83.429688 36.375 78.152344 40.308594 71.433594 41.933594 C 64.984375 43.492188 57.746094 42.015625 51.347656 41.015625 C 44.75 39.984375 41.917969 50.066406 48.566406 51.109375 C 59.570312 52.828125 70.863281 54.453125 81.367188 49.65625 C 87.75 46.742188 93.054688 43.203125 98.695312 40.8125 L 111.351562 44.921875 L 111.351562 53.269531 C 111.351562 55.453125 113.125 57.222656 115.3125 57.222656 L 124.605469 57.222656 C 126.792969 57.222656 128.558594 55.453125 128.558594 53.269531 L 128.558594 44.691406 L 141.070312 40.636719 C 146.160156 42.71875 151 45.789062 156.539062 48.738281 C 167.484375 54.566406 179.628906 52.9375 191.351562 51.109375 C 198 50.066406 195.167969 39.984375 188.570312 41.015625 Z M 188.570312 41.015625 " fill-opacity="1" fill-rule="nonzero"/><path fill="#b8965f" d="M 130.65625 60.710938 C 130.65625 62.894531 128.886719 64.667969 126.703125 64.667969 L 113.214844 64.667969 C 111.03125 64.667969 109.261719 62.894531 109.261719 60.710938 L 109.261719 59.789062 C 109.261719 57.601562 111.03125 55.832031 113.214844 55.832031 L 126.703125 55.832031 C 128.886719 55.832031 130.65625 57.601562 130.65625 59.789062 Z M 130.65625 60.710938 " fill-opacity="1" fill-rule="nonzero"/><path fill="#b8965f" d="M 128.558594 211.40625 C 128.558594 213.589844 126.792969 215.367188 124.605469 215.367188 L 115.3125 215.367188 C 113.125 215.367188 111.351562 213.589844 111.351562 211.40625 L 111.351562 67.230469 C 111.351562 65.042969 113.125 63.273438 115.3125 63.273438 L 124.605469 63.273438 C 126.792969 63.273438 128.558594 65.042969 128.558594 67.230469 Z M 128.558594 211.40625 " fill-opacity="1" fill-rule="nonzero"/><g clip-path="url(#522605ce6a)"><path fill="#b8965f" d="M 166.003906 215.367188 L 153.15625 215.367188 C 150.5 212.375 143.972656 209.3125 135.402344 207.523438 C 135.402344 207.460938 135.425781 207.402344 135.425781 207.339844 C 135.425781 201.496094 128.496094 196.753906 119.953125 196.753906 C 111.417969 196.753906 104.492188 201.496094 104.492188 207.339844 C 104.492188 207.402344 104.519531 207.460938 104.519531 207.523438 C 95.941406 209.3125 89.417969 212.375 86.761719 215.367188 L 74.84375 215.367188 C 72.660156 215.367188 70.886719 217.132812 70.886719 219.320312 L 70.886719 224.894531 C 70.886719 227.078125 72.660156 228.847656 74.84375 228.847656 L 166.003906 228.847656 C 168.183594 228.847656 169.957031 227.078125 169.957031 224.894531 L 169.957031 219.320312 C 169.957031 217.132812 168.183594 215.367188 166.003906 215.367188 Z M 166.003906 215.367188 " fill-opacity="1" fill-rule="nonzero"/></g><path fill="#b8965f" d="M 47.050781 61.570312 L 51.242188 61.570312 L 51.242188 159.183594 L 47.050781 159.183594 Z M 47.050781 61.570312 " fill-opacity="1" fill-rule="nonzero"/><path fill="#b8965f" d="M 11.636719 162.523438 L 43.160156 59.730469 L 47.164062 60.960938 L 15.636719 163.75 Z M 11.636719 162.523438 " fill-opacity="1" fill-rule="nonzero"/><path fill="#b8965f" d="M 51.773438 59.582031 L 55.769531 58.359375 L 87.214844 161.171875 L 83.21875 162.394531 Z M 51.773438 59.582031 " fill-opacity="1" fill-rule="nonzero"/><path fill="#b8965f" d="M 188.675781 61.570312 L 192.867188 61.570312 L 192.867188 159.183594 L 188.675781 159.183594 Z M 188.675781 61.570312 " fill-opacity="1" fill-rule="nonzero"/><path fill="#b8965f" d="M 192.789062 60.941406 L 196.792969 59.714844 L 228.238281 162.527344 L 224.234375 163.753906 Z M 192.789062 60.941406 " fill-opacity="1" fill-rule="nonzero"/><path fill="#b8965f" d="M 152.699219 161.183594 L 184.15625 58.375 L 188.15625 59.597656 L 156.699219 162.40625 Z M 152.699219 161.183594 " fill-opacity="1" fill-rule="nonzero"/><path fill="#b8965f" d="M 131.003906 80.128906 C 131.003906 82.316406 129.234375 84.085938 127.050781 84.085938 L 112.867188 84.085938 C 110.679688 84.085938 108.910156 82.316406 108.910156 80.128906 L 108.910156 68.730469 C 108.910156 66.542969 110.679688 64.773438 112.867188 64.773438 L 127.050781 64.773438 C 129.234375 64.773438 131.003906 66.542969 131.003906 68.730469 Z M 131.003906 80.128906 " fill-opacity="1" fill-rule="nonzero"/><path fill="#b8965f" d="M 49.144531 180.707031 C 73.355469 180.707031 92.976562 171.078125 92.976562 159.183594 L 5.320312 159.183594 C 5.320312 171.078125 24.9375 180.707031 49.144531 180.707031 Z M 49.144531 180.707031 " fill-opacity="1" fill-rule="nonzero"/><path fill="#b8965f" d="M 190.769531 180.707031 C 166.558594 180.707031 146.9375 171.078125 146.9375 159.183594 L 234.605469 159.183594 C 234.605469 171.078125 214.976562 180.707031 190.769531 180.707031 Z M 190.769531 180.707031 " fill-opacity="1" fill-rule="nonzero"/><path fill="#b8965f" d="M 49.144531 64.207031 C 43.441406 64.207031 38.796875 59.5625 38.796875 53.855469 C 38.796875 48.148438 43.441406 43.507812 49.144531 43.507812 C 54.859375 43.507812 59.496094 48.148438 59.496094 53.855469 C 59.496094 59.5625 54.859375 64.207031 49.144531 64.207031 Z M 49.144531 49.085938 C 46.515625 49.085938 44.382812 51.226562 44.382812 53.855469 C 44.382812 56.484375 46.515625 58.621094 49.144531 58.621094 C 51.777344 58.621094 53.917969 56.484375 53.917969 53.855469 C 53.917969 51.226562 51.777344 49.085938 49.144531 49.085938 Z M 49.144531 49.085938 " fill-opacity="1" fill-rule="nonzero"/><path fill="#b8965f" d="M 190.769531 64.207031 C 185.0625 64.207031 180.417969 59.5625 180.417969 53.855469 C 180.417969 48.148438 185.0625 43.507812 190.769531 43.507812 C 196.476562 43.507812 201.121094 48.148438 201.121094 53.855469 C 201.121094 59.5625 196.476562 64.207031 190.769531 64.207031 Z M 190.769531 49.085938 C 188.144531 49.085938 186 51.226562 186 53.855469 C 186 56.484375 188.144531 58.621094 190.769531 58.621094 C 193.402344 58.621094 195.539062 56.484375 195.539062 53.855469 C 195.539062 51.226562 193.402344 49.085938 190.769531 49.085938 Z M 190.769531 49.085938 " fill-opacity="1" fill-rule="nonzero"/><path fill="#b8965f" d="M 57.632812 45.828125 C 57.632812 50.261719 54.039062 53.855469 49.613281 53.855469 C 45.179688 53.855469 41.585938 50.261719 41.585938 45.828125 C 41.585938 41.398438 45.179688 37.804688 49.613281 37.804688 C 54.039062 37.804688 57.632812 41.398438 57.632812 45.828125 Z M 57.632812 45.828125 " fill-opacity="1" fill-rule="nonzero"/><path fill="#b8965f" d="M 198.796875 45.828125 C 198.796875 50.261719 195.203125 53.855469 190.769531 53.855469 C 186.335938 53.855469 182.746094 50.261719 182.746094 45.828125 C 182.746094 41.398438 186.335938 37.804688 190.769531 37.804688 C 195.203125 37.804688 198.796875 41.398438 198.796875 45.828125 Z M 198.796875 45.828125 " fill-opacity="1" fill-rule="nonzero"/><g clip-path="url(#1cf42c00ac)"><path fill="#b8965f" d="M 128.558594 19.785156 C 128.558594 24.535156 124.707031 28.390625 119.953125 28.390625 C 115.207031 28.390625 111.351562 24.535156 111.351562 19.785156 C 111.351562 15.03125 115.207031 11.179688 119.953125 11.179688 C 124.707031 11.179688 128.558594 15.03125 128.558594 19.785156 Z M 128.558594 19.785156 " fill-opacity="1" fill-rule="nonzero"/></g><g clip-path="url(#70d70d9c54)"><g transform="matrix(1, 0, 0, 1, 116, 146)"><g clip-path="url(#b5816f2f93)"><g clip-path="url(#aff884112d)"><path fill="#b8965f" d="M 0.25 0.25 L 4 0.25 L 4 4 L 0.25 4 Z M 0.25 0.25 " fill-opacity="1" fill-rule="nonzero"/></g></g></g></g></svg>