<svg xmlns="http://www.w3.org/2000/svg" xmlns:xlink="http://www.w3.org/1999/xlink" width="320" zoomAndPan="magnify" viewBox="0 0 240 239.999995" height="320" preserveAspectRatio="xMidYMid meet" version="1.0"><defs><clipPath id="ab5e822abf"><path d="M 6 27.269531 L 231 27.269531 L 231 226.769531 L 6 226.769531 Z M 6 27.269531 " clip-rule="nonzero"/></clipPath><clipPath id="bb7324e445"><path d="M 81.925781 112.824219 L 85.675781 112.824219 L 85.675781 116.574219 L 81.925781 116.574219 Z M 81.925781 112.824219 " clip-rule="nonzero"/></clipPath><clipPath id="a10442e7fe"><path d="M 0.925781 0.824219 L 4.675781 0.824219 L 4.675781 4.574219 L 0.925781 4.574219 Z M 0.925781 0.824219 " clip-rule="nonzero"/></clipPath><clipPath id="2441898f0f"><rect x="0" width="5" y="0" height="5"/></clipPath></defs><g clip-path="url(#ab5e822abf)"><path fill="#b8965f" d="M 220.746094 142.292969 L 220.371094 142.753906 C 219.742188 143.492188 218.710938 143.632812 217.910156 143.089844 L 204.648438 134.085938 C 202.085938 132.355469 198.6875 134.671875 199.4375 137.703125 L 207.113281 169.21875 L 198.835938 167.960938 C 196.933594 167.667969 195.136719 169.03125 194.941406 170.9375 L 191.761719 198.984375 C 189.097656 198.191406 186.375 197.429688 183.625 196.71875 L 186.289062 168.925781 C 186.40625 167.796875 185.917969 166.683594 185.058594 165.96875 L 177.414062 159.726562 L 187.980469 124.4375 C 188.324219 123.285156 188.039062 122.03125 187.207031 121.144531 L 171.253906 104.082031 C 169.171875 101.90625 172.410156 98.6875 174.632812 100.566406 L 191.789062 115.171875 C 191.988281 115.371094 192.21875 115.566406 192.476562 115.757812 L 220.542969 139.664062 C 221.316406 140.328125 221.433594 141.507812 220.746094 142.292969 Z M 176.953125 195.109375 L 179.359375 170.082031 L 171.367188 163.554688 C 170.824219 163.121094 170.453125 162.546875 170.253906 161.914062 L 170.253906 172.585938 C 170.253906 180.042969 168.132812 186.867188 164.125 192.578125 C 168.476562 193.320312 172.773438 194.160156 176.953125 195.109375 Z M 163.464844 172.585938 C 163.464844 182.136719 159.140625 190.390625 151.261719 195.832031 L 117.324219 219.3125 L 83.386719 195.832031 C 75.539062 190.390625 71.214844 182.136719 71.214844 172.585938 L 71.214844 123.332031 C 87.710938 120.652344 104.867188 112.105469 117.324219 100.382812 C 128.695312 110.890625 146.96875 121.347656 163.464844 123.464844 Z M 57.78125 195.09375 C 61.933594 194.152344 66.203125 193.316406 70.527344 192.582031 C 66.546875 186.867188 64.398438 180.042969 64.398438 172.585938 L 64.398438 120.375 C 64.398438 118.660156 65.6875 117.207031 67.40625 117.003906 C 71.816406 116.480469 76.3125 115.46875 80.78125 114.050781 L 80.78125 96.117188 L 73.820312 104.089844 C 72.703125 105.367188 71.300781 106.277344 69.726562 106.78125 C 69.351562 107.476562 68.894531 108.132812 68.351562 108.726562 L 53.457031 124.632812 L 57.609375 159.390625 C 57.808594 160.976562 57.753906 164.800781 57.667969 171.992188 C 57.582031 179.171875 57.464844 188.515625 57.78125 195.09375 Z M 42.972656 198.960938 C 40.855469 175.585938 36.171875 160.40625 35.269531 136.761719 C 35.179688 134.0625 32.148438 132.621094 29.972656 134.085938 L 16.710938 143.089844 C 15.910156 143.632812 14.878906 143.492188 14.246094 142.753906 L 13.847656 142.289062 C 13.1875 141.507812 13.273438 140.328125 14.074219 139.664062 L 42.144531 115.757812 L 59.984375 100.566406 C 62.246094 98.660156 65.410156 101.953125 63.367188 104.085938 L 47.414062 121.144531 C 46.726562 121.875 46.410156 122.878906 46.523438 123.871094 L 50.851562 160.195312 C 50.992188 161.414062 50.9375 166.75 50.878906 171.910156 C 50.792969 180.054688 50.679688 189.921875 51.050781 196.714844 C 48.300781 197.421875 45.609375 198.171875 42.972656 198.960938 Z M 24.902344 104.246094 C 24.902344 110.988281 32.757812 114.59375 37.820312 110.507812 C 43.890625 105.609375 40.265625 96.257812 32.894531 96.257812 C 28.484375 96.257812 24.902344 99.84375 24.902344 104.246094 Z M 77.085938 76.476562 L 65.859375 94.339844 C 67.566406 95.285156 68.90625 96.597656 69.8125 98.34375 L 81.609375 84.828125 C 83.675781 82.476562 87.566406 83.917969 87.566406 87.0625 L 87.566406 111.550781 C 97.246094 107.511719 106.382812 101.605469 113.628906 94.496094 C 111.910156 73.085938 106.15625 67.664062 102.746094 66.367188 C 95.53125 63.605469 88.398438 65.179688 81.496094 71.03125 C 79.347656 72.867188 78.6875 73.921875 77.085938 76.476562 Z M 96.21875 42.261719 C 100.628906 42.261719 104.207031 45.847656 104.207031 50.25 C 104.207031 54.652344 100.628906 58.238281 96.21875 58.238281 C 91.804688 58.238281 88.253906 54.652344 88.253906 50.25 C 88.253906 45.847656 91.804688 42.261719 96.21875 42.261719 Z M 167.074219 116.988281 C 168.847656 117.097656 170.253906 118.582031 170.253906 120.375 L 170.253906 159.929688 L 180.90625 124.359375 L 166.269531 108.726562 C 165.726562 108.132812 165.269531 107.476562 164.894531 106.777344 C 163.320312 106.273438 161.917969 105.363281 160.800781 104.085938 L 153.839844 96.117188 L 153.839844 114.253906 C 158.335938 115.742188 162.804688 116.722656 167.074219 116.988281 Z M 131.84375 66.367188 C 128.464844 67.664062 122.710938 73.082031 120.960938 94.476562 C 127.464844 100.722656 137 107.210938 147.023438 111.628906 L 147.023438 87.058594 C 147.023438 83.957031 150.929688 82.460938 153.011719 84.824219 L 164.808594 98.339844 C 165.71875 96.597656 167.050781 95.285156 168.761719 94.339844 L 157.535156 76.472656 C 155.933594 73.917969 155.273438 72.867188 153.097656 71.03125 C 146.222656 65.179688 139.089844 63.613281 131.84375 66.367188 Z M 138.375 42.261719 C 142.785156 42.261719 146.367188 45.847656 146.367188 50.25 C 146.367188 54.652344 142.785156 58.238281 138.375 58.238281 C 133.992188 58.238281 130.414062 54.652344 130.414062 50.25 C 130.414062 45.847656 133.992188 42.261719 138.375 42.261719 Z M 154.785156 34.6875 C 159.199219 35.171875 161.148438 40.277344 161.917969 44.410156 C 158.898438 40.023438 154.550781 38.199219 149.402344 40.40625 C 148.886719 39.816406 148.3125 39.269531 147.683594 38.769531 C 150.460938 35.816406 152.78125 34.46875 154.785156 34.6875 Z M 201.726562 96.257812 C 194.453125 96.257812 190.941406 105.273438 196.398438 110.175781 C 201.546875 114.796875 209.71875 111.113281 209.71875 104.246094 C 209.71875 99.84375 206.136719 96.257812 201.726562 96.257812 Z M 221.003906 99.136719 C 220.199219 98.871094 218.742188 99.019531 216.105469 100.832031 C 218.992188 100.1875 221.757812 100.796875 223.808594 102.964844 C 223.277344 100.882812 222.59375 99.65625 221.003906 99.136719 Z M 224.953125 134.488281 L 206.023438 118.382812 C 210.894531 116.902344 214.703125 112.972656 216.019531 108.035156 C 217.535156 107.308594 218.394531 107.316406 218.652344 107.476562 C 219.140625 107.746094 219.828125 108.9375 220.257812 111.4375 C 220.679688 114.007812 220.6875 117.398438 220.6875 119.859375 C 220.6875 123.316406 225.308594 124.535156 227.015625 121.542969 C 231.203125 114.277344 234.425781 96.390625 223.121094 92.675781 C 219.457031 91.472656 215.902344 92.859375 213.011719 94.71875 C 210.292969 91.507812 206.253906 89.460938 201.726562 89.460938 C 194.253906 89.460938 188.066406 95.039062 187.09375 102.246094 L 179.015625 95.390625 C 178.214844 94.691406 177.296875 94.167969 176.382812 93.800781 C 176.238281 93.507812 176.066406 93.210938 175.894531 92.929688 L 163.292969 72.859375 C 161.574219 70.152344 160.457031 68.363281 157.507812 65.855469 C 154.785156 63.527344 151.953125 61.726562 149.058594 60.460938 C 152.65625 56.714844 154 51.585938 152.667969 46.429688 C 153.328125 46.238281 153.898438 46.226562 154.355469 46.414062 C 158.015625 47.875 160.070312 58.207031 161.117188 62.996094 C 161.859375 66.40625 166.570312 66.621094 167.644531 63.347656 C 169.964844 56.308594 170.425781 42.269531 165.269531 34.242188 C 162.890625 30.558594 159.511719 28.375 155.53125 27.929688 C 149.601562 27.273438 144.734375 31.648438 141.269531 35.75 C 132.222656 33.914062 123.597656 40.910156 123.597656 50.25 C 123.597656 54.324219 125.257812 58.015625 127.949219 60.695312 C 123.253906 63.140625 119.703125 68.292969 117.296875 76.101562 C 114.917969 68.292969 111.367188 63.140625 106.671875 60.695312 C 109.363281 58.015625 110.996094 54.324219 110.996094 50.25 C 110.996094 42.097656 104.378906 35.464844 96.21875 35.464844 C 88.085938 35.464844 81.441406 42.097656 81.441406 50.25 C 81.441406 54.210938 83.015625 57.808594 85.5625 60.460938 C 82.671875 61.726562 79.835938 63.527344 77.113281 65.855469 C 74.164062 68.363281 73.019531 70.152344 71.328125 72.859375 L 58.726562 92.929688 C 58.554688 93.210938 58.382812 93.507812 58.238281 93.800781 C 57.292969 94.167969 56.40625 94.691406 55.578125 95.390625 L 47.527344 102.25 C 46.554688 95.039062 40.367188 89.460938 32.894531 89.460938 C 24.730469 89.460938 18.117188 96.09375 18.117188 104.246094 C 18.117188 110.898438 22.527344 116.535156 28.570312 118.386719 L 9.667969 134.488281 C 6.027344 137.585938 5.597656 143.058594 8.691406 146.691406 L 9.066406 147.160156 C 11.957031 150.53125 16.882812 151.199219 20.550781 148.710938 L 28.828125 143.089844 C 30.308594 164.878906 34.386719 178.675781 36.328125 201.070312 C 31.203125 202.800781 26.304688 204.691406 21.695312 206.730469 C 18.351562 208.210938 19.402344 213.242188 23.070312 213.242188 C 23.527344 213.242188 23.988281 213.148438 24.417969 212.945312 C 39.164062 206.429688 56.953125 201.484375 75.910156 198.59375 C 77.058594 199.59375 78.230469 200.535156 79.519531 201.421875 L 115.40625 226.242188 C 116.566406 227.050781 118.109375 227.035156 119.273438 226.242188 L 155.128906 201.421875 C 156.417969 200.535156 157.621094 199.59375 158.738281 198.59375 C 177.699219 201.484375 195.484375 206.429688 210.234375 212.945312 C 211.894531 213.699219 213.929688 212.972656 214.703125 211.214844 C 215.476562 209.5 214.703125 207.492188 212.984375 206.730469 C 208.375 204.699219 203.476562 202.808594 198.347656 201.085938 L 201.300781 175.210938 L 211.09375 176.699219 C 213.496094 177.0625 215.484375 174.851562 214.902344 172.539062 L 208.117188 144.664062 L 214.074219 148.710938 C 217.738281 151.199219 222.664062 150.53125 225.53125 147.160156 L 225.929688 146.691406 C 229.023438 143.058594 228.59375 137.585938 224.953125 134.488281 Z M 117.984375 125.597656 L 115.71875 128.414062 L 131.242188 140.761719 L 133.476562 137.941406 Z M 112.253906 157.492188 L 123.539062 143.316406 L 114.976562 136.492188 L 103.664062 150.671875 Z M 109.25 168.390625 L 111.480469 165.574219 L 95.988281 153.226562 L 93.726562 156.042969 Z M 112.886719 121.089844 L 110.191406 124.453125 C 108.460938 126.636719 108.351562 129.707031 109.851562 132.007812 L 98.164062 146.691406 C 95.613281 145.753906 92.664062 146.488281 90.890625 148.71875 L 88.199219 152.082031 C 85.992188 154.867188 86.449219 158.925781 89.230469 161.140625 L 105.296875 173.925781 C 108.078125 176.144531 112.125 175.675781 114.347656 172.898438 L 117.007812 169.53125 C 118.78125 167.320312 118.878906 164.316406 117.351562 161.976562 L 120.445312 158.121094 L 149.976562 181.632812 C 151.429688 182.816406 153.570312 182.558594 154.730469 181.09375 C 155.902344 179.625 155.675781 177.488281 154.183594 176.316406 L 124.65625 152.808594 L 129.066406 147.292969 C 131.621094 148.273438 134.628906 147.4375 136.339844 145.269531 L 139.003906 141.902344 C 141.265625 139.082031 140.746094 135.027344 138.003906 132.84375 L 121.933594 120.058594 C 119.164062 117.851562 115.089844 118.285156 112.886719 121.089844 Z M 98.335938 188.734375 L 133.59375 188.734375 C 132.714844 187.117188 132.015625 185.308594 130.183594 185.308594 L 101.746094 185.308594 C 99.917969 185.308594 99.203125 187.140625 98.335938 188.734375 Z M 138.777344 183.992188 C 136.886719 180.511719 133.765625 178.511719 130.183594 178.511719 L 101.746094 178.511719 C 98.164062 178.511719 95.042969 180.511719 93.179688 183.992188 L 89.660156 190.523438 C 88.480469 192.761719 90.074219 195.53125 92.664062 195.53125 L 139.292969 195.53125 C 141.792969 195.53125 143.503906 192.8125 142.269531 190.523438 Z M 138.777344 183.992188 " fill-opacity="1" fill-rule="evenodd"/></g><g clip-path="url(#bb7324e445)"><g transform="matrix(1, 0, 0, 1, 81, 112)"><g clip-path="url(#2441898f0f)"><g clip-path="url(#a10442e7fe)"><path fill="#b8965f" d="M 0.925781 0.824219 L 4.675781 0.824219 L 4.675781 4.574219 L 0.925781 4.574219 Z M 0.925781 0.824219 " fill-opacity="1" fill-rule="nonzero"/></g></g></g></g></svg>