<svg xmlns="http://www.w3.org/2000/svg" xmlns:xlink="http://www.w3.org/1999/xlink" width="320" zoomAndPan="magnify" viewBox="0 0 240 239.999995" height="320" preserveAspectRatio="xMidYMid meet" version="1.0"><defs><clipPath id="c32b709e2c"><path d="M 20.25 149.820312 L 24 149.820312 L 24 153.570312 L 20.25 153.570312 Z M 20.25 149.820312 " clip-rule="nonzero"/></clipPath><clipPath id="e8b83886bc"><path d="M 0.25 0.820312 L 4 0.820312 L 4 4.570312 L 0.25 4.570312 Z M 0.25 0.820312 " clip-rule="nonzero"/></clipPath><clipPath id="18cc2a02ac"><rect x="0" width="4" y="0" height="5"/></clipPath></defs><g clip-path="url(#c32b709e2c)"><g transform="matrix(1, 0, 0, 1, 20, 149)"><g clip-path="url(#18cc2a02ac)"><g clip-path="url(#e8b83886bc)"><path fill="#b8965f" d="M 0.25 0.820312 L 4 0.820312 L 4 4.570312 L 0.25 4.570312 Z M 0.25 0.820312 " fill-opacity="1" fill-rule="nonzero"/></g></g></g></g><path fill="#b8965f" d="M 181.375 74.472656 L 151.160156 104.6875 L 150.585938 104.421875 C 145.707031 102.144531 141.191406 99.082031 137.046875 95.660156 C 129.34375 89.308594 118.699219 88.542969 110.859375 95.089844 L 104.3125 100.554688 L 101.738281 102.207031 L 86.4375 102.246094 L 58.664062 74.472656 C 44.269531 60.078125 44.269531 36.503906 58.664062 22.113281 C 73.078125 7.699219 96.613281 7.699219 111.027344 22.109375 L 118.097656 29.183594 C 119.160156 30.246094 120.878906 30.246094 121.941406 29.183594 L 129.015625 22.109375 C 143.425781 7.699219 166.964844 7.699219 181.375 22.109375 C 195.789062 36.523438 195.789062 60.058594 181.375 74.472656 Z M 35 182.390625 L 50.871094 102.722656 L 50.875 102.695312 C 50.984375 101.890625 50.429688 101.347656 49.691406 101.199219 L 29.398438 97.15625 C 28.660156 97.007812 27.964844 97.472656 27.816406 98.210938 L 11.960938 177.800781 C 11.816406 178.535156 12.28125 179.230469 13.015625 179.378906 L 33.421875 183.445312 C 34.15625 183.589844 34.855469 183.125 35 182.390625 Z M 210.644531 97.15625 L 190.242188 101.21875 C 189.503906 101.367188 189.039062 102.0625 189.183594 102.800781 L 205.039062 182.390625 C 205.1875 183.125 205.882812 183.589844 206.621094 183.445312 L 227.023438 179.378906 C 227.761719 179.230469 228.226562 178.535156 228.078125 177.800781 L 212.222656 98.210938 C 212.078125 97.472656 211.382812 97.007812 210.644531 97.15625 Z M 210.644531 97.15625 " fill-opacity="1" fill-rule="evenodd"/><path fill="#b8965f" d="M 85.625 108.5625 C 85.417969 108.582031 85.207031 108.582031 84.996094 108.5625 L 56.160156 108.636719 L 43.058594 174.398438 L 94.804688 226.457031 C 99.824219 231.476562 108.492188 227.886719 108.492188 220.75 C 108.492188 218.699219 107.707031 216.640625 106.140625 215.070312 L 92.359375 201.289062 C 90.941406 199.875 90.941406 197.578125 92.359375 196.164062 C 93.773438 194.75 96.070312 194.75 97.484375 196.164062 L 127.132812 225.816406 C 128.695312 227.375 130.753906 228.152344 132.816406 228.152344 L 132.816406 228.167969 C 139.925781 228.167969 143.53125 219.554688 138.492188 214.449219 L 110.8125 186.769531 C 109.394531 185.351562 109.394531 183.058594 110.8125 181.644531 C 112.226562 180.226562 114.519531 180.226562 115.9375 181.644531 L 152.613281 218.320312 C 157.636719 223.34375 166.316406 219.824219 166.316406 212.640625 C 166.316406 210.574219 165.53125 208.515625 163.972656 206.953125 L 129.265625 172.25 C 127.847656 170.832031 127.847656 168.539062 129.265625 167.125 C 130.679688 165.707031 132.972656 165.707031 134.390625 167.125 L 169.101562 201.835938 C 173.75 206.484375 181.738281 203.855469 182.710938 197.375 C 182.945312 195.835938 182.738281 194.246094 182.097656 192.824219 L 132.167969 142.167969 C 127.4375 137.859375 123.199219 135.105469 119.84375 133.765625 C 118.199219 133.109375 116.867188 132.828125 115.898438 132.898438 C 115.460938 132.929688 115.519531 132.722656 115.46875 133.152344 L 115.460938 133.148438 C 115.375 134.070312 115.382812 134.09375 115.210938 136.074219 C 113.808594 152.003906 112.515625 166.648438 90.480469 172.179688 C 88.320312 172.789062 86.292969 171.542969 85.847656 169.492188 L 77.546875 131.464844 C 76.339844 125.929688 78.683594 120.773438 82.917969 117.238281 L 93.328125 108.546875 L 85.628906 108.5625 Z M 123.835938 77.0625 C 123.835938 79.066406 122.210938 80.6875 120.210938 80.6875 C 118.207031 80.6875 116.585938 79.066406 116.585938 77.0625 L 116.585938 65.261719 C 116.585938 63.261719 118.207031 61.636719 120.210938 61.636719 C 122.210938 61.636719 123.835938 63.261719 123.835938 65.261719 Z M 103.714844 81.859375 C 105.132812 83.273438 105.132812 85.570312 103.714844 86.984375 C 102.300781 88.398438 100.003906 88.398438 98.589844 86.984375 L 90.246094 78.640625 C 88.832031 77.222656 88.832031 74.929688 90.246094 73.515625 C 91.660156 72.101562 93.957031 72.097656 95.371094 73.515625 Z M 141.453125 87.898438 C 140.035156 89.3125 137.742188 89.3125 136.328125 87.898438 C 134.910156 86.484375 134.910156 84.1875 136.328125 82.773438 L 144.671875 74.429688 C 146.085938 73.015625 148.378906 73.015625 149.792969 74.429688 C 151.210938 75.84375 151.210938 78.140625 149.792969 79.554688 L 141.449219 87.898438 Z M 76.589844 101.363281 L 54.179688 78.957031 C 37.308594 62.085938 37.308594 34.5 54.179688 17.628906 C 71.035156 0.773438 98.65625 0.773438 115.511719 17.625 L 120.019531 22.136719 L 124.53125 17.625 C 141.367188 0.789062 168.992188 0.757812 185.859375 17.625 C 202.714844 34.480469 202.714844 62.101562 185.859375 78.957031 L 158.484375 106.335938 C 167.054688 108.570312 175.207031 107.609375 183.160156 105 L 182.96875 104.039062 C 182.144531 99.914062 184.863281 95.828125 189.003906 95.003906 L 209.40625 90.9375 C 213.535156 90.113281 217.621094 92.839844 218.441406 96.972656 L 234.296875 176.5625 C 235.121094 180.6875 232.402344 184.773438 228.265625 185.597656 L 207.859375 189.664062 C 203.730469 190.484375 199.648438 187.761719 198.824219 183.628906 L 198.570312 182.351562 L 189.347656 191.574219 C 192.566406 201.875 184.429688 212.253906 173.511719 211.355469 C 174.253906 220.273438 167.285156 227.894531 158.296875 227.894531 C 154.457031 227.894531 150.621094 226.472656 147.679688 223.632812 C 146.066406 230.5625 139.917969 235.386719 132.816406 235.386719 L 132.816406 235.402344 C 128.902344 235.402344 124.984375 233.914062 122.011719 230.941406 L 115.316406 224.246094 C 112.628906 235.851562 98.074219 239.96875 89.679688 231.582031 C 89.613281 231.515625 89.550781 231.449219 89.488281 231.375 L 41.359375 182.941406 L 41.21875 183.628906 C 40.398438 187.761719 36.3125 190.484375 32.183594 189.664062 L 11.78125 185.597656 C 7.640625 184.773438 4.921875 180.6875 5.746094 176.5625 L 21.601562 96.972656 C 22.425781 92.839844 26.507812 90.113281 30.636719 90.9375 L 51.042969 95.003906 C 54.253906 95.644531 56.65625 98.269531 57.136719 101.414062 Z M 103.773438 99.824219 L 110.277344 94.394531 C 118.457031 87.5625 129.578125 88.324219 137.625 94.960938 C 142.28125 98.804688 146.722656 101.617188 150.96875 103.597656 L 180.734375 73.832031 C 194.796875 59.769531 194.796875 36.808594 180.734375 22.75 C 166.667969 8.683594 143.703125 8.703125 129.65625 22.75 L 122.582031 29.824219 C 121.167969 31.238281 118.875 31.238281 117.457031 29.824219 L 110.386719 22.75 C 96.328125 8.691406 73.367188 8.691406 59.308594 22.753906 C 45.265625 36.792969 45.265625 59.789062 59.308594 73.832031 L 86.8125 101.339844 L 101.46875 101.304688 Z M 150.722656 111.363281 C 162.238281 115.96875 173.394531 115.65625 184.578125 112.128906 L 196.863281 173.804688 L 185.097656 185.570312 L 137.320312 137.09375 C 137.238281 137.003906 137.148438 136.917969 137.058594 136.832031 C 130.8125 131.148438 122.09375 125.1875 115.390625 125.675781 C 111.386719 125.96875 108.71875 128.558594 108.277344 132.300781 L 108.289062 132.300781 C 107.027344 145.632812 107.082031 158.726562 92.089844 164.140625 L 84.625 129.933594 C 84 127.070312 85.347656 124.636719 87.5625 122.785156 L 114.921875 99.945312 C 120.402344 95.367188 127.640625 96.089844 133.035156 100.542969 C 138.984375 105.449219 144.683594 108.867188 150.144531 111.128906 C 150.332031 111.222656 150.523438 111.300781 150.722656 111.363281 Z M 49.515625 102.085938 C 49.757812 102.136719 50.019531 102.253906 49.976562 102.574219 L 34.113281 182.210938 C 34.0625 182.457031 33.847656 182.605469 33.597656 182.554688 L 13.195312 178.492188 C 12.949219 178.441406 12.800781 178.226562 12.851562 177.976562 L 28.707031 98.386719 C 28.753906 98.144531 28.96875 97.996094 29.222656 98.046875 Z M 210.820312 98.042969 L 190.417969 102.109375 C 190.171875 102.160156 190.023438 102.375 190.074219 102.625 L 205.929688 182.210938 C 205.976562 182.457031 206.191406 182.605469 206.445312 182.554688 L 226.847656 178.492188 C 227.09375 178.441406 227.242188 178.226562 227.191406 177.976562 L 211.335938 98.386719 C 211.285156 98.144531 211.074219 97.996094 210.820312 98.046875 Z M 210.820312 98.042969 " fill-opacity="1" fill-rule="evenodd"/></svg>